<?xml version="1.0" encoding="UTF-8" standalone="no"?>
<svg
   xmlns:dc="http://purl.org/dc/elements/1.1/"
   xmlns:cc="http://creativecommons.org/ns#"
   xmlns:rdf="http://www.w3.org/1999/02/22-rdf-syntax-ns#"
   xmlns:svg="http://www.w3.org/2000/svg"
   xmlns="http://www.w3.org/2000/svg"
   id="svg2"
   xml:space="preserve"
   enable-background="new 0 0 132.4 37.3"
   viewBox="0 0 132.4 37.3"
   y="0px"
   x="0px"
   version="1.1"><metadata
     id="metadata77"><rdf:RDF><cc:Work
         rdf:about=""><dc:format>image/svg+xml</dc:format><dc:type
           rdf:resource="http://purl.org/dc/dcmitype/StillImage" /></cc:Work></rdf:RDF></metadata><defs
     id="defs75" /><g
     display="none"
     id="LOGO_x5F_NOIR"><path
       id="path5"
       d="M41.2,0l4,7.9L45.4,8l4-8h1.8l-4.7,9.3h-2.4L39.4,0H41.2z"
       fill="none"
       display="inline" /><path
       id="path7"
       d="M37.2,27.9l4,7.9l0.2,0.1l4-8h1.8l-4.7,9.3H40l-4.7-9.3H37.2z"
       fill="none"
       display="inline" /><path
       id="path9"
       d="M1.8,13.6l4,7.9L6,21.6l4-8h1.8L7.1,23H4.7L0,13.6H1.8z"
       fill="none"
       display="inline" /><path
       id="path11"
       d="M122.4,13.6l4,7.9l0.2,0.1l4-8h1.8l-4.7,9.3h-2.4l-4.7-9.3H122.4z"
       fill="none"
       display="inline" /><g
       id="g13"
       display="inline"><path
         id="path15"
         d="M35.4,9.3L26,27.9h-4.9L11.8,9.3h3.6l8,16l0.3-0.2l8-15.8H35.4z"
         fill="#1D1D1B" /><path
         id="path17"
         d="M42.9,27.9h-3.2V9.3h3.2V27.9z"
         fill="#1D1D1B" /><path
         id="path19"
         d="M68.7,22.5c0,2.1-0.5,3.5-1.6,4.4c-0.9,0.7-2.5,1.1-4.5,1.1h-9.3c-4.1,0-6.1-1.8-6.1-5.3h3.2    c0,1.6,1.2,2.4,3.5,2.4h8c1.1,0,1.9-0.2,2.5-0.5c0.7-0.4,1.1-1.1,1.1-2.2c0-1.2-0.6-2-1.9-2.4c-0.8-0.3-1.9-0.4-3.4-0.4    c-0.6,0-1.5,0-2.7,0.1c-1.2,0-2.1,0.1-2.7,0.1c-2.4,0-4.1-0.3-5.3-0.9c-1.6-0.8-2.5-2.3-2.5-4.4c0-1.9,0.6-3.3,1.7-4.1    c1-0.7,2.5-1.1,4.5-1.1h8.9c4.4,0,6.6,1.8,6.6,5.3h-3.3c0-1.6-1.2-2.4-3.5-2.4h-8.4c-1.9,0-2.9,0.8-2.9,2.4c0,1.7,1.8,2.5,5.3,2.5    c0.5,0,1.4,0,2.5-0.1c1.1-0.1,1.9-0.1,2.5-0.1c2.4,0,4.2,0.3,5.5,1C67.9,18.8,68.7,20.3,68.7,22.5z"
         fill="#1D1D1B" /><path
         id="path21"
         d="M95,22.4c0,2.4-0.8,3.9-2.3,4.6c-1.1,0.6-3.4,0.8-6.9,0.8h-4.1c-2.6,0-4.5-0.2-5.7-0.7    c-1.3-0.5-2.2-1.4-2.7-2.7c-0.4-1.2-0.7-3.1-0.7-5.7c0-2.8,0.2-4.8,0.6-6c0.4-1.4,1.3-2.4,2.6-2.9C77,9.5,79,9.3,81.7,9.3h4.1    c3.3,0,5.6,0.5,7.1,1.4c1.3,0.9,2,2.2,2,4.1h-3c0-1.2-0.6-2-1.7-2.3c-0.7-0.2-2.2-0.3-4.5-0.3h-3.8c-2.5,0-4.2,0.2-4.9,0.7    c-0.9,0.6-1.4,2-1.4,4.2v2.7c0,2.5,0.4,4,1.3,4.7c0.7,0.5,2.3,0.8,4.9,0.8h3.9c2.3,0,3.9-0.1,4.5-0.3c1.1-0.3,1.7-1.1,1.7-2.4H95z     M88.2,19.7H75.6l0-2.7h12.6V19.7z"
         fill="#1D1D1B" /><path
         id="path23"
         d="M120.5,19.7c0,2.5-0.3,4.3-0.9,5.5c-0.6,1.2-1.6,1.9-3,2.3c-1.1,0.3-2.9,0.5-5.5,0.5h-3.4    c-2.6,0-4.5-0.2-5.7-0.7c-1.3-0.5-2.2-1.4-2.7-2.7c-0.4-1.2-0.7-3.1-0.7-5.7c0-2.8,0.2-4.7,0.6-5.9c0.4-1.4,1.3-2.4,2.6-2.9    c1.2-0.5,3.2-0.8,5.9-0.8h3.4c2.9,0,5,0.3,6.3,0.9c1.3,0.6,2.1,1.7,2.5,3.2C120.4,14.5,120.5,16.6,120.5,19.7z M117.4,19.6v-1.8    c0-1.8-0.2-3-0.5-3.8c-0.4-0.8-1-1.2-1.9-1.4c-0.7-0.2-1.9-0.2-3.8-0.2H108c-2.6,0-4.2,0.3-4.9,0.8c-0.8,0.7-1.2,2.2-1.2,4.7v1.8    c0,2.4,0.4,3.9,1.2,4.6c0.7,0.5,2.2,0.7,4.8,0.7h3.2c1.8,0,3.1-0.1,3.7-0.2c0.9-0.2,1.6-0.7,1.9-1.4    C117.2,22.6,117.4,21.3,117.4,19.6z"
         fill="#1D1D1B" /></g><rect
       id="rect25"
       height="18.6"
       width="108.7"
       fill="none"
       display="inline"
       y="9.3"
       x="11.8" /></g><g
     display="none"
     id="LOGO_x5F_BLANC"><path
       id="path28"
       d="M41.2,0l4,7.9L45.4,8l4-8h1.8l-4.7,9.3h-2.4L39.4,0H41.2z"
       fill="none"
       display="inline" /><path
       id="path30"
       d="M37.2,27.9l4,7.9l0.2,0.1l4-8h1.8l-4.7,9.3H40l-4.7-9.3H37.2z"
       fill="none"
       display="inline" /><path
       id="path32"
       d="M1.8,13.6l4,7.9L6,21.6l4-8h1.8L7.1,23H4.7L0,13.6H1.8z"
       fill="none"
       display="inline" /><path
       id="path34"
       d="M122.4,13.6l4,7.9l0.2,0.1l4-8h1.8l-4.7,9.3h-2.4l-4.7-9.3H122.4z"
       fill="none"
       display="inline" /><g
       id="g36"
       display="inline"><path
         id="path38"
         d="M35.4,9.3L26,27.9h-4.9L11.8,9.3h3.6l8,16l0.3-0.2l8-15.8H35.4z"
         fill="#FFFFFF" /><path
         id="path40"
         d="M42.9,27.9h-3.2V9.3h3.2V27.9z"
         fill="#FFFFFF" /><path
         id="path42"
         d="M68.7,22.5c0,2.1-0.5,3.5-1.6,4.4c-0.9,0.7-2.5,1.1-4.5,1.1h-9.3c-4.1,0-6.1-1.8-6.1-5.3h3.2    c0,1.6,1.2,2.4,3.5,2.4h8c1.1,0,1.9-0.2,2.5-0.5c0.7-0.4,1.1-1.1,1.1-2.2c0-1.2-0.6-2-1.9-2.4c-0.8-0.3-1.9-0.4-3.4-0.4    c-0.6,0-1.5,0-2.7,0.1c-1.2,0-2.1,0.1-2.7,0.1c-2.4,0-4.1-0.3-5.3-0.9c-1.6-0.8-2.5-2.3-2.5-4.4c0-1.9,0.6-3.3,1.7-4.1    c1-0.7,2.5-1.1,4.5-1.1h8.9c4.4,0,6.6,1.8,6.6,5.3h-3.3c0-1.6-1.2-2.4-3.5-2.4h-8.4c-1.9,0-2.9,0.8-2.9,2.4c0,1.7,1.8,2.5,5.3,2.5    c0.5,0,1.4,0,2.5-0.1c1.1-0.1,1.9-0.1,2.5-0.1c2.4,0,4.2,0.3,5.5,1C67.9,18.8,68.7,20.3,68.7,22.5z"
         fill="#FFFFFF" /><path
         id="path44"
         d="M95,22.4c0,2.4-0.8,3.9-2.3,4.6c-1.1,0.6-3.4,0.8-6.9,0.8h-4.1c-2.6,0-4.5-0.2-5.7-0.7    c-1.3-0.5-2.2-1.4-2.7-2.7c-0.4-1.2-0.7-3.1-0.7-5.7c0-2.8,0.2-4.8,0.6-6c0.4-1.4,1.3-2.4,2.6-2.9C77,9.5,79,9.3,81.7,9.3h4.1    c3.3,0,5.6,0.5,7.1,1.4c1.3,0.9,2,2.2,2,4.1h-3c0-1.2-0.6-2-1.7-2.3c-0.7-0.2-2.2-0.3-4.5-0.3h-3.8c-2.5,0-4.2,0.2-4.9,0.7    c-0.9,0.6-1.4,2-1.4,4.2v2.7c0,2.5,0.4,4,1.3,4.7c0.7,0.5,2.3,0.8,4.9,0.8h3.9c2.3,0,3.9-0.1,4.5-0.3c1.1-0.3,1.7-1.1,1.7-2.4H95z     M88.2,19.7H75.6l0-2.7h12.6V19.7z"
         fill="#FFFFFF" /><path
         id="path46"
         d="M120.5,19.7c0,2.5-0.3,4.3-0.9,5.5c-0.6,1.2-1.6,1.9-3,2.3c-1.1,0.3-2.9,0.5-5.5,0.5h-3.4    c-2.6,0-4.5-0.2-5.7-0.7c-1.3-0.5-2.2-1.4-2.7-2.7c-0.4-1.2-0.7-3.1-0.7-5.7c0-2.8,0.2-4.7,0.6-5.9c0.4-1.4,1.3-2.4,2.6-2.9    c1.2-0.5,3.2-0.8,5.9-0.8h3.4c2.9,0,5,0.3,6.3,0.9c1.3,0.6,2.1,1.7,2.5,3.2C120.4,14.5,120.5,16.6,120.5,19.7z M117.4,19.6v-1.8    c0-1.8-0.2-3-0.5-3.8c-0.4-0.8-1-1.2-1.9-1.4c-0.7-0.2-1.9-0.2-3.8-0.2H108c-2.6,0-4.2,0.3-4.9,0.8c-0.8,0.7-1.2,2.2-1.2,4.7v1.8    c0,2.4,0.4,3.9,1.2,4.6c0.7,0.5,2.2,0.7,4.8,0.7h3.2c1.8,0,3.1-0.1,3.7-0.2c0.9-0.2,1.6-0.7,1.9-1.4    C117.2,22.6,117.4,21.3,117.4,19.6z"
         fill="#FFFFFF" /></g><rect
       id="rect48"
       height="18.6"
       width="108.7"
       fill="none"
       display="inline"
       y="9.3"
       x="11.8" /></g><g
     id="LOGO"><path
       id="path51"
       d="M41.2,0l4,7.9L45.4,8l4-8h1.8l-4.7,9.3h-2.4L39.4,0H41.2z"
       fill="none" /><path
       id="path53"
       d="M37.2,27.9l4,7.9l0.2,0.1l4-8h1.8l-4.7,9.3H40l-4.7-9.3H37.2z"
       fill="none" /><path
       id="path55"
       d="M1.8,13.6l4,7.9L6,21.6l4-8h1.8L7.1,23H4.7L0,13.6H1.8z"
       fill="none" /><path
       id="path57"
       d="M122.4,13.6l4,7.9l0.2,0.1l4-8h1.8l-4.7,9.3h-2.4l-4.7-9.3H122.4z"
       fill="none" /><g
       id="g59"><path
         id="path61"
         d="M35.4,9.3L26,27.9h-4.9L11.8,9.3h3.6l8,16l0.3-0.2l8-15.8H35.4z"
         fill="#003A70" /><path
         id="path63"
         d="M42.9,27.9h-3.2V9.3h3.2V27.9z"
         fill="#003A70" /><path
         id="path65"
         d="M68.7,22.5c0,2.1-0.5,3.5-1.6,4.4c-0.9,0.7-2.5,1.1-4.5,1.1h-9.3c-4.1,0-6.1-1.8-6.1-5.3h3.2    c0,1.6,1.2,2.4,3.5,2.4h8c1.1,0,1.9-0.2,2.5-0.5c0.7-0.4,1.1-1.1,1.1-2.2c0-1.2-0.6-2-1.9-2.4c-0.8-0.3-1.9-0.4-3.4-0.4    c-0.6,0-1.5,0-2.7,0.1c-1.2,0-2.1,0.1-2.7,0.1c-2.4,0-4.1-0.3-5.3-0.9c-1.6-0.8-2.5-2.3-2.5-4.4c0-1.9,0.6-3.3,1.7-4.1    c1-0.7,2.5-1.1,4.5-1.1h8.9c4.4,0,6.6,1.8,6.6,5.3h-3.3c0-1.6-1.2-2.4-3.5-2.4h-8.4c-1.9,0-2.9,0.8-2.9,2.4c0,1.7,1.8,2.5,5.3,2.5    c0.5,0,1.4,0,2.5-0.1c1.1-0.1,1.9-0.1,2.5-0.1c2.4,0,4.2,0.3,5.5,1C67.9,18.8,68.7,20.3,68.7,22.5z"
         fill="#003A70" /><path
         id="path67"
         d="M95,22.4c0,2.4-0.8,3.9-2.3,4.6c-1.1,0.6-3.4,0.8-6.9,0.8h-4.1c-2.6,0-4.5-0.2-5.7-0.7    c-1.3-0.5-2.2-1.4-2.7-2.7c-0.4-1.2-0.7-3.1-0.7-5.7c0-2.8,0.2-4.8,0.6-6c0.4-1.4,1.3-2.4,2.6-2.9C77,9.5,79,9.3,81.7,9.3h4.1    c3.3,0,5.6,0.5,7.1,1.4c1.3,0.9,2,2.2,2,4.1h-3c0-1.2-0.6-2-1.7-2.3c-0.7-0.2-2.2-0.3-4.5-0.3h-3.8c-2.5,0-4.2,0.2-4.9,0.7    c-0.9,0.6-1.4,2-1.4,4.2v2.7c0,2.5,0.4,4,1.3,4.7c0.7,0.5,2.3,0.8,4.9,0.8h3.9c2.3,0,3.9-0.1,4.5-0.3c1.1-0.3,1.7-1.1,1.7-2.4H95z     M88.2,19.7H75.6l0-2.7h12.6V19.7z"
         fill="#003A70" /><path
         id="path69"
         d="M120.5,19.7c0,2.5-0.3,4.3-0.9,5.5c-0.6,1.2-1.6,1.9-3,2.3c-1.1,0.3-2.9,0.5-5.5,0.5h-3.4    c-2.6,0-4.5-0.2-5.7-0.7c-1.3-0.5-2.2-1.4-2.7-2.7c-0.4-1.2-0.7-3.1-0.7-5.7c0-2.8,0.2-4.7,0.6-5.9c0.4-1.4,1.3-2.4,2.6-2.9    c1.2-0.5,3.2-0.8,5.9-0.8h3.4c2.9,0,5,0.3,6.3,0.9c1.3,0.6,2.1,1.7,2.5,3.2C120.4,14.5,120.5,16.6,120.5,19.7z M117.4,19.6v-1.8    c0-1.8-0.2-3-0.5-3.8c-0.4-0.8-1-1.2-1.9-1.4c-0.7-0.2-1.9-0.2-3.8-0.2H108c-2.6,0-4.2,0.3-4.9,0.8c-0.8,0.7-1.2,2.2-1.2,4.7v1.8    c0,2.4,0.4,3.9,1.2,4.6c0.7,0.5,2.2,0.7,4.8,0.7h3.2c1.8,0,3.1-0.1,3.7-0.2c0.9-0.2,1.6-0.7,1.9-1.4    C117.2,22.6,117.4,21.3,117.4,19.6z"
         fill="#003A70" /></g><rect
       id="rect71"
       height="18.6"
       width="108.7"
       fill="none"
       y="9.3"
       x="11.8" /></g></svg>